<svg aria-hidden="true" style="position: absolute; width: 0; height: 0; overflow: hidden;" version="1.1" xmlns="http://www.w3.org/2000/svg" xmlns:xlink="http://www.w3.org/1999/xlink">
<defs>
<symbol id="logo" viewBox="0 0 48 62">
<path d="M20.8696 17.4952H14.6087V1.51904H10.4348V17.4952H4.17391V1.51904H0V19.2069C0 25.6979 4.52022 31.1024 10.4348 32.1468V62H14.6087V32.1468C20.5233 31.1024 25.0435 25.6979 25.0435 19.2069V1.51904H20.8696V17.4952ZM12.5217 27.7655C8.89422 27.7655 5.80122 25.3802 4.65261 22.0598H20.3909C19.2423 25.3802 16.1493 27.7655 12.5217 27.7655Z" />
<path d="M45.5957 0.404538C41.3261 1.12283 37.4326 3.48878 34.6199 7.07425C31.8071 10.6597 30.2608 15.2279 30.2609 19.952V43.7416H43.8261V62H48V0L45.5957 0.404538ZM43.8261 39.177H34.4348V19.952C34.4205 16.7784 35.3199 13.6803 37.0054 11.0967C38.691 8.51324 41.0773 6.57535 43.8261 5.55769V39.177Z" />
</symbol>

<symbol id="cart" viewBox="0 0 46 43">
<path d="M40.4033 12.5417C40.0722 12.0054 39.5979 11.5584 39.0269 11.2443C38.4558 10.9303 37.8074 10.76 37.145 10.7501H12.6117L11.5 6.70091C11.3877 6.31003 11.1371 5.96622 10.7891 5.72547C10.441 5.48472 10.0161 5.36122 9.58334 5.37507H5.75001C5.24168 5.37507 4.75417 5.56384 4.39472 5.89984C4.03528 6.23584 3.83334 6.69156 3.83334 7.16674C3.83334 7.64192 4.03528 8.09764 4.39472 8.43364C4.75417 8.76964 5.24168 8.95841 5.75001 8.95841H8.12668L13.4167 27.3409C13.529 27.7318 13.7796 28.0756 14.1276 28.3163C14.4756 28.5571 14.9006 28.6806 15.3333 28.6667H32.5833C32.9373 28.6657 33.284 28.5731 33.5851 28.3992C33.8862 28.2253 34.1299 27.9768 34.2892 27.6813L40.5758 15.928C40.8483 15.3941 40.9752 14.8055 40.9451 14.2146C40.915 13.6237 40.7289 13.049 40.4033 12.5417Z" />
<path d="M14.375 37.625C15.9628 37.625 17.25 36.4218 17.25 34.9375C17.25 33.4532 15.9628 32.25 14.375 32.25C12.7872 32.25 11.5 33.4532 11.5 34.9375C11.5 36.4218 12.7872 37.625 14.375 37.625Z" />
<path d="M33.5417 37.625C35.1295 37.625 36.4167 36.4218 36.4167 34.9375C36.4167 33.4532 35.1295 32.25 33.5417 32.25C31.9539 32.25 30.6667 33.4532 30.6667 34.9375C30.6667 36.4218 31.9539 37.625 33.5417 37.625Z" />
</symbol>

<symbol id="arrows" viewBox="0 0 42 42">
<path d="M25.6415 6.8599L25.6116 29.0427L23.5677 26.3098C23.4335 26.1303 23.2652 25.9791 23.0725 25.8647C22.8799 25.7502 22.6666 25.6749 22.4448 25.6429C22.223 25.6109 21.9971 25.6229 21.7799 25.6782C21.5628 25.7335 21.3586 25.8311 21.1792 25.9653C20.9671 26.124 20.7948 26.3298 20.676 26.5666C20.5572 26.8034 20.4952 27.0646 20.4948 27.3295C20.4943 27.6987 20.6136 28.0581 20.8347 28.3538L25.9446 35.1861C26.1036 35.3951 26.3086 35.5645 26.5438 35.6812C26.7789 35.798 27.0378 35.8589 27.3003 35.8592C27.5628 35.8596 27.8219 35.7994 28.0573 35.6833C28.2928 35.5671 28.4983 35.3983 28.6578 35.1898L33.7858 28.6101C34.0646 28.2529 34.1901 27.7997 34.1347 27.35C34.0793 26.9003 33.8475 26.491 33.4904 26.2122C33.1332 25.9334 32.6799 25.8079 32.2303 25.8633C31.7806 25.9187 31.3713 26.1505 31.0925 26.5076L29.0242 29.1838L29.0542 6.86449C29.0548 6.41194 28.8756 5.97767 28.5561 5.65723C28.2365 5.3368 27.8027 5.15643 27.3501 5.15583C26.8976 5.15522 26.4633 5.33441 26.1429 5.65399C25.8224 5.97356 25.6421 6.40735 25.6415 6.8599Z"/>
<path d="M13.6601 34.1458L13.69 11.963L15.734 14.6959C16.005 15.0583 16.4089 15.2982 16.8568 15.3628C17.3048 15.4274 17.76 15.3114 18.1224 15.0404C18.4848 14.7694 18.7247 14.3654 18.7893 13.9175C18.8539 13.4696 18.738 13.0144 18.4669 12.6519L13.357 5.81957C13.198 5.61065 12.993 5.44123 12.7578 5.32449C12.5227 5.20774 12.2638 5.14682 12.0013 5.14647C11.7388 5.14612 11.4797 5.20634 11.2443 5.32245C11.0088 5.43856 10.8034 5.60743 10.6438 5.81592L5.51586 12.3956C5.2843 12.6932 5.15781 13.059 5.15613 13.436C5.1564 13.6966 5.21636 13.9537 5.3314 14.1875C5.44645 14.4214 5.61351 14.6257 5.8198 14.785C6.17515 15.0625 6.62593 15.1882 7.07363 15.1344C7.52134 15.0807 7.92956 14.8519 8.20911 14.4981L10.2774 11.8219L10.2474 34.1412C10.2468 34.5938 10.426 35.028 10.7456 35.3485C11.0651 35.6689 11.4989 35.8493 11.9515 35.8499C12.404 35.8505 12.8383 35.6713 13.1587 35.3517C13.4792 35.0321 13.6595 34.5984 13.6601 34.1458Z"/>
</symbol>

<symbol id="note" viewBox="0 0 38 38">
<path d="M25.3333 6.72913C25.3333 8.69246 23.7342 10.2916 21.7708 10.2916H16.2292C15.2475 10.2916 14.3608 9.89579 13.7117 9.24663C13.0625 8.59746 12.6667 7.71079 12.6667 6.72913C12.6667 4.76579 14.2658 3.16663 16.2292 3.16663H21.7708C22.7525 3.16663 23.6392 3.56246 24.2883 4.21163C24.9375 4.86079 25.3333 5.74746 25.3333 6.72913Z" />
<path d="M29.8142 7.96258C29.448 7.66214 29.0365 7.42165 28.595 7.25008C28.1358 7.07592 27.6767 7.44008 27.5817 7.91508C27.0433 10.6226 24.6525 12.6651 21.7708 12.6651H16.2292C14.6458 12.6651 13.1575 12.0476 12.0333 10.9234C11.211 10.1075 10.649 9.06615 10.4183 7.93092C10.3233 7.45592 9.84834 7.07592 9.38918 7.26592C7.55251 8.01008 6.33334 9.68841 6.33334 13.0609V28.4984C6.33334 33.2484 9.16751 34.8318 12.6667 34.8318H25.3333C28.8325 34.8318 31.6667 33.2484 31.6667 28.4984V13.0609C31.6667 10.4801 30.9542 8.89675 29.8142 7.96258ZM12.6667 19.3942H19C19.6492 19.3942 20.1875 19.9326 20.1875 20.5817C20.1875 21.2309 19.6492 21.7692 19 21.7692H12.6667C12.0175 21.7692 11.4792 21.2309 11.4792 20.5817C11.4792 19.9326 12.0175 19.3942 12.6667 19.3942ZM25.3333 28.1026H12.6667C12.0175 28.1026 11.4792 27.5643 11.4792 26.9151C11.4792 26.2659 12.0175 25.7276 12.6667 25.7276H25.3333C25.9825 25.7276 26.5208 26.2659 26.5208 26.9151C26.5208 27.5643 25.9825 28.1026 25.3333 28.1026Z"/>
</symbol>


<symbol id="logout" viewBox="0 0 51 51">
<path d="M40.375 8.5H36.125C35.5614 8.5 35.0209 8.72388 34.6224 9.1224C34.2239 9.52091 34 10.0614 34 10.625C34 11.1886 34.2239 11.7291 34.6224 12.1276C35.0209 12.5261 35.5614 12.75 36.125 12.75H38.25V38.25H36.125C35.5614 38.25 35.0209 38.4739 34.6224 38.8724C34.2239 39.2709 34 39.8114 34 40.375C34 40.9386 34.2239 41.4791 34.6224 41.8776C35.0209 42.2761 35.5614 42.5 36.125 42.5H40.375C40.9386 42.5 41.4791 42.2761 41.8776 41.8776C42.2761 41.4791 42.5 40.9386 42.5 40.375V10.625C42.5 10.0614 42.2761 9.52091 41.8776 9.1224C41.4791 8.72388 40.9386 8.5 40.375 8.5V8.5Z" fill="white"/>
<path d="M25.075 15.725C24.7368 15.2741 24.2334 14.9761 23.6755 14.8964C23.1176 14.8167 22.5509 14.9619 22.1 15.3C21.6491 15.6382 21.3511 16.1416 21.2714 16.6995C21.1917 17.2574 21.3368 17.8241 21.675 18.275L25.5 23.375H8.5C7.93641 23.375 7.39591 23.5989 6.9974 23.9974C6.59888 24.3959 6.375 24.9364 6.375 25.5C6.375 26.0636 6.59888 26.6041 6.9974 27.0026C7.39591 27.4011 7.93641 27.625 8.5 27.625H25.5H25.6913L22.0362 32.81C21.8732 33.0384 21.757 33.2968 21.6943 33.5704C21.6317 33.8439 21.6239 34.1272 21.6713 34.4038C21.7187 34.6804 21.8204 34.9449 21.9706 35.1819C22.1208 35.419 22.3164 35.624 22.5462 35.785C22.9075 36.0372 23.3382 36.1709 23.7787 36.1675C24.1159 36.166 24.4478 36.0842 24.7471 35.929C25.0464 35.7738 25.3045 35.5496 25.5 35.275L31.4925 26.775C31.7584 26.4111 31.9018 25.972 31.9018 25.5213C31.9018 25.0705 31.7584 24.6314 31.4925 24.2675L25.075 15.725Z" fill="white"/>
</symbol>

<symbol id="login" viewBox="0 0 50 53">
<path d="M14.5833 13.0318C15.1358 13.0318 15.6657 12.803 16.0564 12.3957C16.4471 11.9884 16.6666 11.4359 16.6666 10.8599C16.6666 10.2838 16.4471 9.73135 16.0564 9.32403C15.6657 8.9167 15.1358 8.68787 14.5833 8.68787H10.4166C9.86405 8.68787 9.33415 8.9167 8.94345 9.32403C8.55275 9.73135 8.33325 10.2838 8.33325 10.8599V41.2677C8.33325 41.8437 8.55275 42.3962 8.94345 42.8035C9.33415 43.2108 9.86405 43.4396 10.4166 43.4396H14.5833C15.1358 43.4396 15.6657 43.2108 16.0564 42.8035C16.4471 42.3962 16.6666 41.8437 16.6666 41.2677C16.6666 40.6916 16.4471 40.1392 16.0564 39.7318C15.6657 39.3245 15.1358 39.0957 14.5833 39.0957H12.4999V13.0318H14.5833Z" fill="white"/>
<path d="M43.375 24.8042L37.5 16.1162C37.1814 15.648 36.6979 15.3303 36.1553 15.2326C35.6126 15.1349 35.0549 15.2652 34.6042 15.595C34.3789 15.7596 34.187 15.9691 34.0398 16.2114C33.8926 16.4537 33.7928 16.724 33.7463 17.0067C33.6999 17.2894 33.7075 17.5789 33.769 17.8585C33.8304 18.1381 33.9443 18.4023 34.1042 18.6357L37.6875 23.8919H37.5H20.8333C20.2808 23.8919 19.7509 24.1208 19.3602 24.5281C18.9695 24.9354 18.75 25.4879 18.75 26.0639C18.75 26.64 18.9695 27.1924 19.3602 27.5998C19.7509 28.0071 20.2808 28.2359 20.8333 28.2359H37.5L33.75 33.4487C33.5859 33.6769 33.4664 33.9365 33.3985 34.2128C33.3306 34.4891 33.3156 34.7767 33.3543 35.059C33.393 35.3414 33.4846 35.6131 33.624 35.8585C33.7634 36.1039 33.9478 36.3183 34.1667 36.4895C34.5273 36.7714 34.9659 36.9239 35.4167 36.9239C35.7401 36.9239 36.0591 36.8454 36.3484 36.6946C36.6376 36.5438 36.8893 36.3248 37.0833 36.0551L43.3333 27.3671C43.6002 26.9998 43.748 26.5535 43.7555 26.0927C43.763 25.632 43.6297 25.1807 43.375 24.8042V24.8042Z" fill="white"/></symbol>


<symbol id="trash" viewBox="0 0 43 52">
<g filter="url(#filter0_d_17_337)">
<path d="M6.91669 41.5625C6.91232 42.1373 7.13611 42.6905 7.539 43.1005C7.94189 43.5106 8.49097 43.7442 9.06582 43.75H33.9342C34.5091 43.7442 35.0582 43.5106 35.461 43.1005C35.8639 42.6905 36.0877 42.1373 36.0834 41.5625V12.3958H6.91669V41.5625ZM9.83336 15.3125H33.1667V40.8333H9.83336V15.3125Z"/>
<path d="M16.3958 18.2291H13.4791V36.4583H16.3958V18.2291Z" />
<path d="M22.9584 18.2291H20.0417V36.4583H22.9584V18.2291Z" />
<path d="M29.5208 18.2291H26.6041V36.4583H29.5208V18.2291Z"/>
<path d="M28.0625 6.5625V2.1875C28.0625 0.960859 27.1977 0 26.0938 0H16.9063C15.8023 0 14.9375 0.960859 14.9375 2.1875V6.5625H4V9.47917H39V6.5625H28.0625ZM17.8542 2.91667H25.1458V6.5625H17.8542V2.91667Z" />
</g>
<defs>
<filter id="filter0_d_17_337" x="0" y="0" width="43" height="51.75" filterUnits="userSpaceOnUse" color-interpolation-filters="sRGB">
<feFlood flood-opacity="0" result="BackgroundImageFix"/>
<feColorMatrix in="SourceAlpha" type="matrix" values="0 0 0 0 0 0 0 0 0 0 0 0 0 0 0 0 0 0 127 0" result="hardAlpha"/>
<feOffset dy="4"/>
<feGaussianBlur stdDeviation="2"/>
<feComposite in2="hardAlpha" operator="out"/>
<feColorMatrix type="matrix" values="0 0 0 0 0 0 0 0 0 0 0 0 0 0 0 0 0 0 0.25 0"/>
<feBlend mode="normal" in2="BackgroundImageFix" result="effect1_dropShadow_17_337"/>
<feBlend mode="normal" in="SourceGraphic" in2="effect1_dropShadow_17_337" result="shape"/>
</filter>
</defs>
</symbol>

<symbol id="check" viewBox="0 0 40 40">
<path d="M16.4335 30C16.2049 29.9992 15.979 29.9515 15.7697 29.8598C15.5604 29.768 15.3722 29.6342 15.2168 29.4666L7.11681 20.85C6.81402 20.5273 6.65182 20.0975 6.66588 19.6553C6.67995 19.213 6.86913 18.7944 7.19181 18.4916C7.51449 18.1889 7.94424 18.0266 8.38651 18.0407C8.82878 18.0548 9.24735 18.244 9.55014 18.5666L16.4168 25.8833L30.4335 10.55C30.5757 10.3728 30.7527 10.2267 30.9535 10.1204C31.1543 10.0142 31.3747 9.95008 31.6011 9.9321C31.8276 9.91413 32.0553 9.94264 32.2704 10.0159C32.4854 10.0891 32.6832 10.2056 32.8516 10.358C33.02 10.5105 33.1555 10.6958 33.2497 10.9025C33.3438 11.1093 33.3948 11.3331 33.3993 11.5602C33.4039 11.7873 33.3619 12.013 33.2761 12.2233C33.1902 12.4337 33.0623 12.6242 32.9001 12.7833L17.6668 29.45C17.5129 29.6206 17.3253 29.7575 17.116 29.8521C16.9066 29.9468 16.6799 29.9971 16.4501 30H16.4335Z"/>
</symbol>

<symbol id="close" viewBox="0 0 52 52">
<path d="M29.0549 26.0001L38.3715 16.7051C38.7795 16.2971 39.0087 15.7437 39.0087 15.1667C39.0087 14.5898 38.7795 14.0364 38.3715 13.6284C37.9635 13.2204 37.4102 12.9912 36.8332 12.9912C36.2562 12.9912 35.7029 13.2204 35.2949 13.6284L25.9999 22.9451L16.7049 13.6284C16.2969 13.2204 15.7435 12.9912 15.1665 12.9912C14.5895 12.9912 14.0362 13.2204 13.6282 13.6284C13.2202 14.0364 12.991 14.5898 12.991 15.1667C12.991 15.7437 13.2202 16.2971 13.6282 16.7051L22.9449 26.0001L13.6282 35.2951C13.4251 35.4965 13.2639 35.7361 13.1539 36.0002C13.0439 36.2642 12.9873 36.5474 12.9873 36.8334C12.9873 37.1194 13.0439 37.4026 13.1539 37.6667C13.2639 37.9307 13.4251 38.1703 13.6282 38.3717C13.8296 38.5748 14.0693 38.736 14.3333 38.846C14.5973 38.956 14.8805 39.0126 15.1665 39.0126C15.4526 39.0126 15.7358 38.956 15.9998 38.846C16.2638 38.736 16.5034 38.5748 16.7049 38.3717L25.9999 29.0551L35.2949 38.3717C35.4963 38.5748 35.7359 38.736 36 38.846C36.264 38.956 36.5472 39.0126 36.8332 39.0126C37.1192 39.0126 37.4024 38.956 37.6665 38.846C37.9305 38.736 38.1701 38.5748 38.3715 38.3717C38.5746 38.1703 38.7358 37.9307 38.8458 37.6667C38.9558 37.4026 39.0124 37.1194 39.0124 36.8334C39.0124 36.5474 38.9558 36.2642 38.8458 36.0002C38.7358 35.7361 38.5746 35.4965 38.3715 35.2951L29.0549 26.0001Z"/>
</symbol>

<symbol id="sun" viewBox="0 0 28 28">
<path d="M13.8148 6.90742C14.1201 6.90742 14.413 6.78613 14.6289 6.57023C14.8447 6.35433 14.966 6.06151 14.966 5.75619V3.45372C14.966 3.1484 14.8447 2.85558 14.6289 2.63968C14.413 2.42378 14.1201 2.30249 13.8148 2.30249C13.5095 2.30249 13.2167 2.42378 13.0008 2.63968C12.7849 2.85558 12.6636 3.1484 12.6636 3.45372V5.75619C12.6636 6.06151 12.7849 6.35433 13.0008 6.57023C13.2167 6.78613 13.5095 6.90742 13.8148 6.90742Z" />
<path d="M24.1759 12.6636H21.8734C21.5681 12.6636 21.2753 12.7849 21.0594 13.0008C20.8435 13.2167 20.7222 13.5095 20.7222 13.8148C20.7222 14.1201 20.8435 14.413 21.0594 14.6289C21.2753 14.8447 21.5681 14.966 21.8734 14.966H24.1759C24.4812 14.966 24.774 14.8447 24.9899 14.6289C25.2058 14.413 25.3271 14.1201 25.3271 13.8148C25.3271 13.5095 25.2058 13.2167 24.9899 13.0008C24.774 12.7849 24.4812 12.6636 24.1759 12.6636Z" />
<path d="M6.90742 13.8148C6.90742 13.5095 6.78613 13.2167 6.57023 13.0008C6.35433 12.7849 6.06151 12.6636 5.75619 12.6636H3.45372C3.1484 12.6636 2.85558 12.7849 2.63968 13.0008C2.42378 13.2167 2.30249 13.5095 2.30249 13.8148C2.30249 14.1201 2.42378 14.413 2.63968 14.6289C2.85558 14.8447 3.1484 14.966 3.45372 14.966H5.75619C6.06151 14.966 6.35433 14.8447 6.57023 14.6289C6.78613 14.413 6.90742 14.1201 6.90742 13.8148Z" />
<path d="M7.16063 5.75613C6.93621 5.54393 6.63669 5.42956 6.32796 5.4382C6.01923 5.44684 5.72657 5.57776 5.51437 5.80218C5.30217 6.02659 5.1878 6.32611 5.19644 6.63484C5.20508 6.94358 5.336 7.23624 5.56042 7.44844L7.21819 9.04865C7.32944 9.15607 7.46119 9.23998 7.60558 9.29536C7.74997 9.35074 7.90404 9.37647 8.05859 9.371C8.21367 9.3704 8.36702 9.33849 8.50946 9.27716C8.6519 9.21583 8.78047 9.12636 8.88748 9.01411C9.1019 8.79842 9.22225 8.50663 9.22225 8.2025C9.22225 7.89836 9.1019 7.60657 8.88748 7.39088L7.16063 5.75613Z"/>
<path d="M19.5709 9.371C19.8673 9.36982 20.1518 9.25436 20.3653 9.04866L22.023 7.44845C22.2253 7.23714 22.3395 6.95678 22.3425 6.66431C22.3455 6.37183 22.2371 6.08918 22.0392 5.87376C21.8414 5.65833 21.569 5.52628 21.2773 5.50444C20.9856 5.48259 20.6966 5.57258 20.4689 5.75613L18.8111 7.39088C18.5967 7.60658 18.4763 7.89836 18.4763 8.2025C18.4763 8.50664 18.5967 8.79842 18.8111 9.01412C19.0104 9.22447 19.2817 9.35191 19.5709 9.371Z" />
<path d="M13.8148 20.7222C13.5095 20.7222 13.2167 20.8435 13.0008 21.0594C12.7849 21.2753 12.6636 21.5681 12.6636 21.8734V24.1759C12.6636 24.4812 12.7849 24.774 13.0008 24.9899C13.2167 25.2058 13.5095 25.3271 13.8148 25.3271C14.1201 25.3271 14.413 25.2058 14.6289 24.9899C14.8447 24.774 14.966 24.4812 14.966 24.1759V21.8734C14.966 21.5681 14.8447 21.2753 14.6289 21.0594C14.413 20.8435 14.1201 20.7222 13.8148 20.7222Z" />
<path d="M20.4114 18.5809C20.1916 18.3687 19.8964 18.2525 19.5909 18.2579C19.2854 18.2633 18.9946 18.3898 18.7824 18.6096C18.5702 18.8295 18.454 19.1246 18.4594 19.4301C18.4648 19.7356 18.5913 20.0264 18.8112 20.2386L20.4689 21.8734C20.6824 22.0791 20.9669 22.1945 21.2633 22.1957C21.4176 22.1966 21.5704 22.1665 21.7128 22.1072C21.8552 22.0479 21.9842 21.9605 22.0922 21.8504C22.2001 21.7433 22.2857 21.616 22.3442 21.4757C22.4026 21.3354 22.4327 21.185 22.4327 21.033C22.4327 20.881 22.4026 20.7305 22.3442 20.5902C22.2857 20.45 22.2001 20.3226 22.0922 20.2156L20.4114 18.5809Z" />
<path d="M7.21822 18.5809L5.56044 20.1811C5.45254 20.2881 5.36689 20.4154 5.30845 20.5557C5.25 20.696 5.21991 20.8465 5.21991 20.9985C5.21991 21.1504 5.25 21.3009 5.30845 21.4412C5.36689 21.5815 5.45254 21.7088 5.56044 21.8158C5.66842 21.926 5.79743 22.0133 5.93982 22.0727C6.08221 22.132 6.23508 22.1621 6.38933 22.1612C6.67312 22.1636 6.94781 22.0611 7.16065 21.8734L8.81843 20.2732C9.03826 20.061 9.1648 19.7701 9.1702 19.4646C9.17559 19.1591 9.05941 18.864 8.84721 18.6442C8.63501 18.4243 8.34417 18.2978 8.03867 18.2924C7.73318 18.287 7.43805 18.4032 7.21822 18.6154V18.5809Z"/>
<path d="M13.8148 9.20984C12.904 9.20984 12.0137 9.47991 11.2564 9.98591C10.4991 10.4919 9.90891 11.2111 9.56037 12.0525C9.21183 12.894 9.12064 13.8199 9.29832 14.7131C9.47601 15.6064 9.91458 16.4269 10.5586 17.0709C11.2026 17.715 12.0231 18.1535 12.9164 18.3312C13.8097 18.5089 14.7356 18.4177 15.577 18.0692C16.4184 17.7206 17.1376 17.1304 17.6436 16.3731C18.1496 15.6159 18.4197 14.7255 18.4197 13.8148C18.4197 12.5935 17.9345 11.4222 17.0709 10.5586C16.2074 9.695 15.0361 9.20984 13.8148 9.20984V9.20984Z" />
</symbol>


<symbol id="moon" viewBox="0 0 25 25">
<path d="M12.8125 22.9167H12.7083C11.2797 22.9058 9.86762 22.61 8.55475 22.0465C7.24188 21.4831 6.05462 20.6634 5.0625 19.6354C3.22275 17.668 2.17696 15.0889 2.12694 12.3957C2.07693 9.70263 3.02624 7.08644 4.79166 5.05208C5.92904 3.77744 7.35888 2.79799 8.95833 2.19791C9.14496 2.1261 9.34831 2.10952 9.54411 2.15015C9.7399 2.19079 9.91986 2.28693 10.0625 2.42708C10.1946 2.56179 10.2876 2.72985 10.3317 2.91331C10.3757 3.09677 10.3691 3.28875 10.3125 3.46874C9.74162 5.03222 9.62851 6.72608 9.98645 8.35158C10.3444 9.97707 11.1585 11.4668 12.3333 12.6458C13.5191 13.817 15.0123 14.6284 16.6401 14.986C18.2679 15.3437 19.9638 15.2329 21.5312 14.6667C21.7178 14.601 21.9192 14.5898 22.1119 14.6344C22.3046 14.679 22.4807 14.7775 22.6194 14.9184C22.7582 15.0594 22.8539 15.2369 22.8955 15.4303C22.9371 15.6237 22.9227 15.8249 22.8542 16.0104C22.322 17.4309 21.4908 18.7205 20.4167 19.7917C19.4175 20.7878 18.2314 21.5767 16.9264 22.113C15.6215 22.6493 14.2234 22.9224 12.8125 22.9167V22.9167Z" />
</symbol>

</defs>
</svg>
